<svg width="24" height="24" viewBox="0 0 24 24" fill="none" xmlns="http://www.w3.org/2000/svg">
<path d="M19.708 7.29196C19.8012 7.38485 19.8751 7.4952 19.9255 7.61669C19.9759 7.73818 20.0018 7.86842 20.0018 7.99996C20.0018 8.13149 19.9759 8.26173 19.9255 8.38322C19.8751 8.50471 19.8012 8.61507 19.708 8.70796L10.708 17.708C10.6152 17.8011 10.5048 17.875 10.3833 17.9254C10.2618 17.9758 10.1316 18.0017 10 18.0017C9.86851 18.0017 9.73827 17.9758 9.61678 17.9254C9.49528 17.875 9.38493 17.8011 9.29204 17.708L5.29204 13.708C5.10427 13.5202 4.99878 13.2655 4.99878 13C4.99878 12.7344 5.10427 12.4797 5.29204 12.292C5.47982 12.1042 5.73449 11.9987 6.00004 11.9987C6.26559 11.9987 6.52027 12.1042 6.70804 12.292L10 15.586L18.292 7.29196C18.3849 7.19883 18.4953 7.12494 18.6168 7.07453C18.7383 7.02412 18.8685 6.99817 19 6.99817C19.1316 6.99817 19.2618 7.02412 19.3833 7.07453C19.5048 7.12494 19.6152 7.19883 19.708 7.29196Z" fill="#FEFEFE"/>
</svg>
