<svg width="60" height="60" viewBox="0 0 60 60" fill="none" xmlns="http://www.w3.org/2000/svg">
<path d="M55 8.50003V47.5H4C3.20435 47.5 2.44129 47.184 1.87868 46.6214C1.31607 46.0587 1 45.2957 1 44.5V8.50003C1.01011 7.70752 1.32942 6.95032 1.88986 6.38989C2.45029 5.82945 3.20749 5.51014 4 5.50003H52C52.7927 5.50963 53.5502 5.82878 54.1107 6.38932C54.6713 6.94987 54.9904 7.70736 55 8.50003Z" fill="#D0E0EF"/>
<path d="M30.3502 26.5L55.0002 47.5H4.0002C3.23836 47.5025 2.50461 47.2126 1.9502 46.69L25.6502 26.5H30.3502Z" fill="#C1D2E0"/>
<path d="M54.0502 6.31002L30.0702 26.74C29.4914 27.2292 28.758 27.4975 28.0002 27.4975C27.2424 27.4975 26.509 27.2292 25.9302 26.74L1.9502 6.31002C2.50461 5.78749 3.23836 5.49757 4.0002 5.50002H52.0002C52.762 5.49757 53.4958 5.78749 54.0502 6.31002Z" fill="#E9F4FF"/>
<path d="M47 54C53.6274 54 59 48.6274 59 42C59 35.3726 53.6274 30 47 30C40.3726 30 35 35.3726 35 42C35 48.6274 40.3726 54 47 54Z" fill="#0F5096"/>
<path d="M44.1793 49C43.8083 48.9999 43.4526 48.8481 43.1903 48.5779L40.3927 45.6969C40.1379 45.4252 39.9969 45.0613 40.0001 44.6836C40.0032 44.3059 40.1504 43.9446 40.4097 43.6775C40.6691 43.4104 41.0199 43.2589 41.3867 43.2557C41.7534 43.2524 42.1068 43.3976 42.3706 43.66L44.1002 45.4412L51.5098 36.5395C51.6271 36.3888 51.7726 36.264 51.9376 36.1724C52.1027 36.0808 52.2839 36.0243 52.4706 36.0063C52.6573 35.9883 52.8456 36.0091 53.0243 36.0675C53.203 36.1259 53.3685 36.2207 53.5109 36.3463C53.6533 36.4718 53.7698 36.6256 53.8533 36.7984C53.9369 36.9713 53.9859 37.1597 53.9974 37.3524C54.0089 37.5451 53.9826 37.7382 53.9201 37.9203C53.8577 38.1023 53.7604 38.2696 53.6339 38.4122L45.241 48.4958C45.1109 48.655 44.9483 48.7828 44.7648 48.8699C44.5812 48.957 44.3813 49.0015 44.1793 49Z" fill="white"/>
</svg>
